<svg xmlns="http://www.w3.org/2000/svg" width="163" height="72" viewBox="0 0 163 72" version="1.1">
	<path d="M 59.400 1.765 C 56.392 3.774, 56 7.311, 56 32.434 L 56 58 109.047 58 L 162.093 58 161.797 31.410 C 161.500 4.836, 161.499 4.819, 159.139 2.910 C 156.888 1.089, 154.547 1.001, 108.639 1.015 C 82.163 1.024, 60.005 1.361, 59.400 1.765 M 49.606 6.152 C 50.648 7.611, 51.700 8.611, 51.944 8.374 C 52.189 8.138, 51.337 6.944, 50.050 5.722 L 47.712 3.500 49.606 6.152 M 74.689 13.750 C 71.868 19.443, 68.761 28.094, 69.332 28.665 C 69.658 28.991, 70.464 28.075, 71.123 26.629 C 72.150 24.375, 72.944 24, 76.682 24 C 80.363 24, 81.220 24.390, 82.182 26.500 C 83.367 29.100, 85.628 30.078, 84.667 27.575 C 81.387 19.027, 77.641 11, 76.932 11 C 76.448 11, 75.438 12.238, 74.689 13.750 M 85 12 C 85 12.550, 86.350 13, 88 13 L 91 13 91 21.059 C 91 26.177, 91.365 28.892, 92 28.500 C 92.550 28.160, 93 24.534, 93 20.441 C 93 13.171, 93.057 13, 95.500 13 C 96.875 13, 98 12.550, 98 12 C 98 11.436, 95.167 11, 91.500 11 C 87.833 11, 85 11.436, 85 12 M 100 20.059 C 100 25.844, 100.361 28.895, 101 28.500 C 101.550 28.160, 102 26.334, 102 24.441 C 102 21.029, 102.039 21, 106.500 21 L 111 21 111 25.059 C 111 27.510, 111.396 28.873, 112 28.500 C 112.550 28.160, 113 24.084, 113 19.441 C 113 14.480, 112.588 11, 112 11 C 111.450 11, 111 12.575, 111 14.500 C 111 17.981, 110.976 18, 106.500 18 C 102.024 18, 102 17.981, 102 14.500 C 102 12.575, 101.550 11, 101 11 C 100.407 11, 100 14.686, 100 20.059 M 116 20.200 C 116 27.018, 116.291 29.109, 117.126 28.274 C 117.822 27.578, 118.081 24.802, 117.805 20.987 C 117.364 14.885, 117.377 14.848, 119.163 17.163 C 120.155 18.448, 121.230 20.288, 121.551 21.250 C 122.460 23.976, 123.675 23.354, 126.434 18.750 L 128.981 14.500 128.991 21.191 C 128.996 24.871, 129.450 28.160, 130 28.500 C 130.639 28.895, 131 25.844, 131 20.059 C 131 15.077, 130.603 11, 130.118 11 C 129.633 11, 127.897 13.060, 126.259 15.578 L 123.281 20.155 120.598 15.578 C 119.123 13.060, 117.485 11, 116.958 11 C 116.417 11, 116 15.003, 116 20.200 M 138.722 13.686 C 135.876 19.423, 132.757 28.091, 133.332 28.665 C 133.658 28.991, 134.464 28.075, 135.123 26.629 C 136.150 24.375, 136.944 24, 140.682 24 C 144.363 24, 145.220 24.390, 146.182 26.500 C 147.470 29.326, 149.433 29.939, 148.579 27.248 C 146.980 22.211, 142.005 11.502, 141.127 11.209 C 140.572 11.024, 139.489 12.139, 138.722 13.686 M 15.405 15.250 L 13.500 17.500 15.750 15.595 C 16.988 14.547, 18 13.535, 18 13.345 C 18 12.545, 17.195 13.136, 15.405 15.250 M 38.500 15 C 39.495 16.100, 40.535 17, 40.810 17 C 41.085 17, 40.495 16.100, 39.500 15 C 38.505 13.900, 37.465 13, 37.190 13 C 36.915 13, 37.505 13.900, 38.500 15 M 75.201 17.321 C 73.554 21.877, 73.601 22, 77 22 C 78.650 22, 80 21.830, 80 21.622 C 80 20.946, 76.981 14, 76.687 14 C 76.530 14, 75.861 15.494, 75.201 17.321 M 139.201 17.321 C 137.554 21.877, 137.601 22, 141 22 C 142.650 22, 144 21.830, 144 21.622 C 144 20.946, 140.981 14, 140.687 14 C 140.530 14, 139.861 15.494, 139.201 17.321 M 12.459 19.067 C 12.096 19.653, 12.014 20.348, 12.276 20.610 C 12.538 20.872, 13.019 20.392, 13.345 19.543 C 14.021 17.781, 13.445 17.471, 12.459 19.067 M 41.564 19.293 C 41.940 20.279, 42.499 20.834, 42.807 20.526 C 43.115 20.219, 42.808 19.412, 42.124 18.733 C 41.136 17.753, 41.022 17.868, 41.564 19.293 M 10.252 28.500 C 10.263 30.700, 10.468 31.482, 10.707 30.238 C 10.946 28.994, 10.937 27.194, 10.687 26.238 C 10.437 25.282, 10.241 26.300, 10.252 28.500 M 18.015 28.309 C 18.006 30.597, 18.399 31.871, 19 31.500 C 20.264 30.719, 20.264 27.956, 19 26 C 18.280 24.887, 18.027 25.481, 18.015 28.309 M 35.720 27.332 C 34.606 30.165, 34.788 31.612, 36.094 30.306 C 36.695 29.705, 37.020 28.377, 36.814 27.356 C 36.454 25.566, 36.415 25.565, 35.720 27.332 M 44.360 35 C 44.360 40.225, 44.529 42.362, 44.735 39.750 C 44.941 37.138, 44.941 32.862, 44.735 30.250 C 44.529 27.637, 44.360 29.775, 44.360 35 M 78.268 38.500 C 78.285 42.350, 78.487 44.263, 78.716 42.750 C 79.079 40.353, 79.582 40, 82.634 40 C 85.628 40, 86.047 40.277, 85.527 41.916 C 85.192 42.970, 85.387 44.121, 85.959 44.475 C 86.636 44.893, 87 43.002, 87 39.059 C 87 35.447, 86.571 33, 85.937 33 C 85.353 33, 85.015 34.013, 85.187 35.250 C 85.452 37.151, 85.037 37.500, 82.510 37.500 C 79.997 37.500, 79.417 37.021, 78.878 34.500 C 78.471 32.597, 78.248 34.061, 78.268 38.500 M 114 33 C 114 33.550, 114.450 34, 115 34 C 115.550 34, 116 33.550, 116 33 C 116 32.450, 115.550 32, 115 32 C 114.450 32, 114 32.450, 114 33 M 131 38.500 C 131 42.258, 131.262 45.071, 131.582 44.751 C 132.399 43.934, 132.469 33.136, 131.663 32.330 C 131.298 31.965, 131 34.742, 131 38.500 M 117.756 34.327 C 117.536 34.972, 117.546 37.627, 117.777 40.226 L 118.198 44.952 123.849 44.725 C 129.359 44.503, 129.507 44.421, 129.799 41.448 C 130.146 37.902, 127.235 34.589, 124.645 35.583 C 123.740 35.930, 123 36.602, 123 37.076 C 123 37.549, 123.653 37.686, 124.452 37.380 C 125.251 37.074, 126.484 37.181, 127.192 37.619 C 128.098 38.178, 127.741 38.585, 125.990 38.990 C 124.620 39.306, 123.055 40.565, 122.511 41.786 C 121.967 43.008, 121.067 43.859, 120.511 43.677 C 118.921 43.157, 118.670 37.223, 120.222 36.834 C 121.249 36.577, 121.164 36.114, 119.856 34.827 C 118.695 33.686, 118.028 33.527, 117.756 34.327 M 11 34.642 C 11 35.179, 11.700 36.491, 12.555 37.559 C 14.022 39.389, 14.042 39.357, 12.920 37 C 11.462 33.939, 11 33.372, 11 34.642 M 21 34.378 C 21 34.585, 21.788 35.373, 22.750 36.128 C 24.336 37.371, 24.371 37.336, 23.128 35.750 C 21.821 34.084, 21 33.555, 21 34.378 M 36 36.450 C 36 38.724, 35.587 38.926, 30.250 39.261 L 24.500 39.622 30.750 39.811 L 37 40 37 37 C 37 35.350, 36.775 34, 36.500 34 C 36.225 34, 36 35.103, 36 36.450 M 90 37 C 87.731 39.269, 87.565 40.318, 89.035 43.066 C 90.192 45.228, 93.963 45.637, 95.800 43.800 C 97.567 42.033, 97.260 38.546, 95.171 36.655 C 92.842 34.547, 92.425 34.575, 90 37 M 99.250 35.667 C 97.238 36.471, 97.782 40.130, 100 40.710 C 101.100 40.998, 102 41.886, 102 42.684 C 102 43.680, 101.373 43.936, 100 43.500 C 98.853 43.136, 98 43.320, 98 43.933 C 98 45.708, 102.733 45.138, 103.447 43.276 C 104.071 41.653, 101.814 39, 99.809 39 C 99.364 39, 99 38.498, 99 37.883 C 99 37.249, 99.888 36.999, 101.057 37.305 C 102.312 37.633, 102.970 37.410, 102.745 36.734 C 102.300 35.400, 100.949 34.987, 99.250 35.667 M 107.490 36.016 C 107.144 36.575, 106.443 36.774, 105.931 36.457 C 105.389 36.122, 105.057 38.518, 105.136 42.191 C 105.211 45.661, 105.461 47.536, 105.692 46.358 C 105.996 44.804, 106.646 44.356, 108.061 44.726 C 112.515 45.891, 115.165 38.229, 111.066 36.035 C 108.662 34.749, 108.275 34.747, 107.490 36.016 M 135.250 35.667 C 133.238 36.471, 133.782 40.130, 136 40.710 C 137.100 40.998, 138 41.886, 138 42.684 C 138 43.680, 137.373 43.936, 136 43.500 C 134.803 43.120, 134 43.320, 134 43.999 C 134 44.645, 135.179 44.997, 136.741 44.816 C 140.440 44.390, 140.942 41.386, 137.571 39.850 C 134.509 38.455, 134.122 36.537, 137.057 37.305 C 138.312 37.633, 138.970 37.410, 138.745 36.734 C 138.300 35.400, 136.949 34.987, 135.250 35.667 M 114 40.500 C 114 42.975, 114.450 45, 115 45 C 115.550 45, 116 42.975, 116 40.500 C 116 38.025, 115.550 36, 115 36 C 114.450 36, 114 38.025, 114 40.500 M 90.701 37.632 C 89.494 38.839, 89.936 42.762, 91.341 43.300 C 93.495 44.127, 95.202 42.466, 94.837 39.897 C 94.507 37.569, 92.089 36.244, 90.701 37.632 M 107.213 38.188 C 105.572 39.828, 105.688 41.496, 107.550 43.042 C 109.768 44.882, 112.974 41.767, 111.412 39.291 C 110.007 37.064, 108.684 36.716, 107.213 38.188 M 124.419 41.131 C 123.567 42.510, 125.524 44.412, 126.913 43.554 C 127.511 43.184, 128 42.507, 128 42.048 C 128 40.718, 125.129 39.982, 124.419 41.131 M 23.232 44 C 23.232 45.925, 23.438 46.712, 23.689 45.750 C 23.941 44.788, 23.941 43.212, 23.689 42.250 C 23.438 41.288, 23.232 42.075, 23.232 44 M 35 48.729 C 34.175 49.043, 33.169 49.795, 32.765 50.400 C 32.257 51.161, 32.026 51.115, 32.015 50.250 C 32.007 49.563, 31.550 49, 31 49 C 30.450 49, 30 50.350, 30 52 C 30 55.247, 31.567 56.095, 32.311 53.250 C 32.655 51.933, 32.797 52.057, 32.884 53.750 C 33.019 56.373, 34.509 56.700, 35.801 54.391 C 36.618 52.932, 36.764 52.942, 37.363 54.503 C 37.880 55.852, 38.327 55.974, 39.423 55.064 C 40.334 54.308, 41.039 54.253, 41.443 54.908 C 42.634 56.835, 44.862 54.837, 44.779 51.915 C 44.704 49.290, 44.380 49.010, 41.598 49.173 C 39.894 49.272, 37.853 49.837, 37.063 50.427 C 35.918 51.282, 35.759 51.144, 36.281 49.750 C 36.642 48.788, 36.839 48.036, 36.719 48.079 C 36.598 48.122, 35.825 48.415, 35 48.729 M 10.676 49.765 C 10.443 50.169, 10.352 51.625, 10.473 53 C 10.669 55.212, 11.087 55.460, 14.097 55.153 C 15.969 54.962, 17.831 54.287, 18.235 53.653 C 18.761 52.827, 18.974 52.871, 18.985 53.809 C 18.993 54.529, 19.419 54.859, 19.931 54.543 C 20.443 54.226, 21.149 54.432, 21.500 55 C 21.851 55.568, 22.605 55.744, 23.176 55.391 C 23.848 54.976, 23.745 54.461, 22.886 53.929 C 22.155 53.478, 21.944 52.747, 22.416 52.304 C 22.888 51.862, 23.445 51.950, 23.653 52.500 C 23.862 53.050, 24.475 54.175, 25.016 55 C 25.891 56.333, 26.111 56.333, 26.999 55 C 28.686 52.465, 27.682 50.504, 24.670 50.453 C 23.129 50.427, 21.632 50.786, 21.345 51.251 C 21.057 51.716, 20.207 51.587, 19.455 50.962 C 18.703 50.338, 17.618 50.118, 17.044 50.473 C 16.470 50.828, 16 50.740, 16 50.277 C 16 49.224, 11.251 48.767, 10.676 49.765 M 41 52 C 41 52.550, 41.477 53, 42.059 53 C 42.641 53, 42.840 52.550, 42.500 52 C 42.160 51.450, 41.684 51, 41.441 51 C 41.198 51, 41 51.450, 41 52 M 88.032 63.939 C 87.445 65.037, 87.380 66.117, 87.883 66.428 C 88.372 66.730, 88.985 65.857, 89.247 64.488 C 89.818 61.499, 89.432 61.324, 88.032 63.939 M 127.286 66.500 C 127.294 69.250, 127.488 70.256, 127.718 68.736 C 127.947 67.216, 127.941 64.966, 127.704 63.736 C 127.467 62.506, 127.279 63.750, 127.286 66.500 M 146.100 65.600 C 144.742 70.519, 145.442 71.220, 147 66.500 C 147.660 64.501, 147.962 62.629, 147.673 62.339 C 147.383 62.050, 146.675 63.517, 146.100 65.600 M 1.618 66.160 C 0.744 70.528, 1.438 70.738, 2.739 66.499 C 3.330 64.575, 3.461 63, 3.031 63 C 2.602 63, 1.966 64.422, 1.618 66.160 M 5.429 64.927 C 5.429 65.986, 5.782 66.635, 6.214 66.368 C 7.236 65.736, 7.236 63, 6.214 63 C 5.782 63, 5.429 63.867, 5.429 64.927 M 23.625 66.125 C 22.791 70.293, 23.599 71.101, 24.500 67 C 24.880 65.271, 24.982 63.649, 24.727 63.394 C 24.472 63.139, 23.976 64.368, 23.625 66.125 M 38.639 63.694 C 38.288 64.046, 38.061 65.721, 38.136 67.417 C 38.257 70.155, 38.324 70.220, 38.737 68 C 38.993 66.625, 39.654 65.219, 40.208 64.875 C 40.847 64.478, 40.861 64.032, 40.246 63.652 C 39.714 63.323, 38.991 63.342, 38.639 63.694 M 61.516 64.250 C 60.566 67.072, 60.559 69.313, 61.500 69.646 C 62.050 69.841, 62.500 68.425, 62.500 66.500 C 62.500 62.821, 62.216 62.172, 61.516 64.250 M 65.731 65.080 C 66.085 66.432, 66.538 66.886, 66.788 66.137 C 67.028 65.415, 66.750 64.350, 66.168 63.768 C 65.426 63.026, 65.296 63.417, 65.731 65.080 M 105.524 64.357 C 105.236 65.261, 104.795 66.661, 104.544 67.468 C 104.293 68.275, 104.467 69.171, 104.932 69.458 C 105.396 69.745, 105.998 68.522, 106.269 66.740 C 106.809 63.195, 106.356 61.745, 105.524 64.357 M 137.509 64.149 C 137.854 65.056, 137.656 66.095, 137.068 66.458 C 136.481 66.821, 136 67.642, 136 68.282 C 136 68.921, 136.727 68.407, 137.616 67.138 C 138.852 65.373, 138.956 64.558, 138.056 63.666 C 137.159 62.776, 137.030 62.890, 137.509 64.149 M 158.079 64.583 C 158.127 65.748, 158.364 65.985, 158.683 65.188 C 158.972 64.466, 158.936 63.603, 158.604 63.271 C 158.272 62.939, 158.036 63.529, 158.079 64.583 M 19.011 65.487 C 17.578 67.214, 18.347 70.036, 20.219 69.921 C 21.222 69.859, 21.229 69.733, 20.250 69.338 C 18.441 68.608, 18.716 66.265, 20.750 65.080 C 21.712 64.519, 21.993 64.047, 21.372 64.030 C 20.752 64.014, 19.689 64.669, 19.011 65.487 M 91.200 65.200 C 89.744 66.656, 89.645 68.663, 90.989 69.493 C 91.557 69.844, 91.722 69.439, 91.377 68.539 C 91.046 67.679, 91.332 66.305, 92.011 65.487 C 93.487 63.708, 92.900 63.500, 91.200 65.200 M 100.011 65.487 C 98.584 67.206, 99.337 70.007, 101.219 69.985 C 102.112 69.974, 102.046 69.681, 101 69.015 C 99.760 68.226, 99.718 67.709, 100.758 66.031 C 102.228 63.659, 101.791 63.342, 100.011 65.487 M 12.896 68.180 C 12.394 72.046, 13.238 72.293, 15.094 68.824 C 15.780 67.542, 15.811 66.999, 15.175 67.392 C 14.612 67.740, 13.976 67.231, 13.763 66.262 C 13.549 65.293, 13.159 66.156, 12.896 68.180 M 27.158 67 C 27.158 68.375, 27.385 68.938, 27.662 68.250 C 27.940 67.563, 27.940 66.438, 27.662 65.750 C 27.385 65.063, 27.158 65.625, 27.158 67 M 42 66.059 C 42 66.641, 42.450 66.840, 43 66.500 C 43.550 66.160, 44 65.684, 44 65.441 C 44 65.198, 43.550 65, 43 65 C 42.450 65, 42 65.477, 42 66.059 M 45.896 68.180 C 45.394 72.046, 46.238 72.293, 48.094 68.824 C 48.780 67.542, 48.811 66.999, 48.175 67.392 C 47.612 67.740, 46.976 67.231, 46.763 66.262 C 46.549 65.293, 46.159 66.156, 45.896 68.180 M 68.336 66.567 C 68.005 67.429, 68.132 68.532, 68.617 69.017 C 69.128 69.528, 69.500 68.866, 69.500 67.450 C 69.500 64.611, 69.180 64.368, 68.336 66.567 M 80.825 67.326 C 80.452 69.151, 80.592 69.808, 81.218 69.182 C 81.751 68.649, 82.011 67.377, 81.794 66.356 C 81.503 64.981, 81.251 65.233, 80.825 67.326 M 93.825 67.326 C 93.452 69.151, 93.592 69.808, 94.218 69.182 C 94.751 68.649, 95.011 67.377, 94.794 66.356 C 94.503 64.981, 94.251 65.233, 93.825 67.326 M 114.769 66.776 C 114.074 69.431, 112.330 69.700, 111.689 67.250 C 111.277 65.672, 111.221 65.666, 111.116 67.191 C 111.052 68.121, 111.493 69.187, 112.096 69.559 C 113.516 70.437, 116.365 67.595, 115.791 65.874 C 115.527 65.080, 115.118 65.441, 114.769 66.776 M 121.079 65.668 C 121.036 66.311, 120.741 67.661, 120.424 68.668 C 119.877 70.409, 119.906 70.412, 120.995 68.712 C 121.626 67.729, 121.920 66.379, 121.650 65.712 C 121.295 64.837, 121.136 64.825, 121.079 65.668 M 132.753 67.512 C 132.182 70.501, 132.568 70.676, 133.968 68.061 C 134.555 66.963, 134.620 65.883, 134.117 65.572 C 133.628 65.270, 133.015 66.143, 132.753 67.512 M 149.158 67 C 149.158 68.375, 149.385 68.938, 149.662 68.250 C 149.940 67.563, 149.940 66.438, 149.662 65.750 C 149.385 65.063, 149.158 65.625, 149.158 67 M 155.079 65.668 C 155.036 66.311, 154.741 67.661, 154.424 68.668 C 153.877 70.409, 153.906 70.412, 154.995 68.712 C 155.626 67.729, 155.920 66.379, 155.650 65.712 C 155.295 64.837, 155.136 64.825, 155.079 65.668 M 140.079 67.583 C 140.127 68.748, 140.364 68.985, 140.683 68.188 C 140.972 67.466, 140.936 66.603, 140.604 66.271 C 140.272 65.939, 140.036 66.529, 140.079 67.583 M 83 67.902 C 83 68.940, 84.902 70.443, 85.466 69.850 C 85.649 69.658, 85.169 68.920, 84.399 68.211 C 83.630 67.501, 83 67.362, 83 67.902 M 108.079 68.583 C 108.127 69.748, 108.364 69.985, 108.683 69.188 C 108.972 68.466, 108.936 67.603, 108.604 67.271 C 108.272 66.939, 108.036 67.529, 108.079 68.583 M 117.079 68.583 C 117.127 69.748, 117.364 69.985, 117.683 69.188 C 117.972 68.466, 117.936 67.603, 117.604 67.271 C 117.272 66.939, 117.036 67.529, 117.079 68.583 M 160 69 C 159.099 69.582, 158.975 69.975, 159.691 69.985 C 160.346 69.993, 161.160 69.550, 161.500 69 C 162.267 67.758, 161.921 67.758, 160 69" stroke="none" fill="black" fill-rule="evenodd"/>
</svg>